<svg width="101" height="101" viewBox="0 0 101 101" fill="none" xmlns="http://www.w3.org/2000/svg">
<g clip-path="url(#clip0)">
<path d="M43.096 52.7888C47.9307 52.7888 51.85 48.8695 51.85 44.0348C51.85 39.2001 47.9307 35.2808 43.096 35.2808C38.2613 35.2808 34.342 39.2001 34.342 44.0348C34.342 48.8695 38.2613 52.7888 43.096 52.7888Z" fill="#E53935"/>
<path d="M57.3961 62.7951C60.3779 62.7951 62.7951 60.3779 62.7951 57.3961C62.7951 54.4143 60.3779 51.9971 57.3961 51.9971C54.4143 51.9971 51.9971 54.4143 51.9971 57.3961C51.9971 60.3779 54.4143 62.7951 57.3961 62.7951Z" fill="#E53935"/>
<path d="M96.521 40.685C95.4678 40.685 94.4578 41.1034 93.7131 41.8481C92.9684 42.5928 92.55 43.6028 92.55 44.656V46.275H82.975C82.2538 40.3043 79.9056 34.6466 76.187 29.92L82.967 23.14L84.112 24.285C84.8609 25.0084 85.864 25.4087 86.9053 25.3997C87.9465 25.3907 88.9425 24.9731 89.6788 24.2368C90.4151 23.5005 90.8327 22.5045 90.8417 21.4633C90.8508 20.422 90.4504 19.4189 89.727 18.67L89.162 18.105L89.097 18.04L89.02 17.963L89.057 18L88.968 17.911L88.943 17.886L88.874 17.817L87.834 16.777L87.717 16.66L81.817 10.76C81.0681 10.0366 80.065 9.63626 79.0238 9.64527C77.9825 9.65429 76.9865 10.0719 76.2502 10.8082C75.5139 11.5445 75.0963 12.5405 75.0873 13.5817C75.0783 14.623 75.4786 15.6261 76.202 16.375L77.347 17.52L70.567 24.3C65.8405 20.5812 60.1828 18.233 54.212 17.512V7.941H55.831C56.8731 7.92446 57.867 7.49887 58.5981 6.75605C59.3292 6.01324 59.739 5.01276 59.739 3.9705C59.739 2.92824 59.3292 1.92776 58.5981 1.18495C57.867 0.442133 56.8731 0.0165391 55.831 0L44.656 0C43.6028 0 42.5928 0.418372 41.8481 1.16308C41.1034 1.90779 40.685 2.91783 40.685 3.971C40.685 5.02417 41.1034 6.03421 41.8481 6.77892C42.5928 7.52363 43.6028 7.942 44.656 7.942H46.275V17.517C40.3048 18.2367 34.6472 20.5832 29.92 24.3L23.14 17.52L24.285 16.375C24.6642 16.0087 24.9667 15.5705 25.1748 15.086C25.3829 14.6016 25.4924 14.0805 25.497 13.5533C25.5016 13.026 25.4011 12.5031 25.2014 12.0151C25.0017 11.5271 24.7069 11.0838 24.3341 10.711C23.9612 10.3381 23.5179 10.0433 23.0299 9.84361C22.5419 9.64394 22.019 9.54346 21.4918 9.54803C20.9645 9.55259 20.4434 9.66211 19.959 9.8702C19.4745 10.0783 19.0363 10.3808 18.67 10.76L17.6 11.834L10.764 18.67C10.3848 19.0363 10.0823 19.4745 9.87421 19.959C9.66612 20.4434 9.5566 20.9645 9.55204 21.4917C9.54747 22.019 9.64795 22.5419 9.84762 23.0299C10.0473 23.5179 10.3421 23.9612 10.715 24.334C11.0878 24.7069 11.5312 25.0017 12.0191 25.2014C12.5071 25.4011 13.03 25.5015 13.5573 25.497C14.0845 25.4924 14.6056 25.3829 15.09 25.1748C15.5745 24.9667 16.0127 24.6642 16.379 24.285L17.524 23.14L24.304 29.92C20.5852 34.6465 18.237 40.3043 17.516 46.275H7.94101V44.656C7.94937 44.1293 7.85285 43.6062 7.65706 43.1171C7.46128 42.6281 7.17015 42.1829 6.80062 41.8074C6.4311 41.432 5.99057 41.1338 5.50469 40.9303C5.01881 40.7268 4.49729 40.622 3.97051 40.622C3.44373 40.622 2.92221 40.7268 2.43633 40.9303C1.95045 41.1338 1.50992 41.432 1.1404 41.8074C0.770876 42.1829 0.479744 42.6281 0.28396 43.1171C0.0881757 43.6062 -0.00834749 44.1293 1.17562e-05 44.656V55.836C1.17562e-05 56.8892 0.418384 57.8992 1.16309 58.6439C1.9078 59.3886 2.91784 59.807 3.97101 59.807C5.02419 59.807 6.03423 59.3886 6.77893 58.6439C7.52364 57.8992 7.94201 56.8892 7.94201 55.836V54.217H17.517C18.2368 60.1872 20.5832 65.8448 24.3 70.572L17.52 77.352L16.375 76.207C16.0087 75.8278 15.5705 75.5253 15.086 75.3172C14.6016 75.1091 14.0805 74.9996 13.5533 74.995C13.026 74.9905 12.5031 75.0909 12.0151 75.2906C11.5272 75.4903 11.0838 75.7851 10.711 76.158C10.3381 76.5308 10.0433 76.9741 9.84362 77.4621C9.64395 77.9501 9.54347 78.473 9.54804 79.0003C9.5526 79.5275 9.66212 80.0486 9.87021 80.533C10.0783 81.0175 10.3808 81.4557 10.76 81.822L11.325 82.387L12.77 83.832L18.67 89.732C19.0363 90.1112 19.4745 90.4137 19.959 90.6218C20.4434 90.8299 20.9645 90.9394 21.4918 90.944C22.019 90.9485 22.5419 90.8481 23.0299 90.6484C23.5179 90.4487 23.9612 90.1539 24.3341 89.781C24.7069 89.4082 25.0017 88.9649 25.2014 88.4769C25.4011 87.9889 25.5016 87.466 25.497 86.9387C25.4924 86.4115 25.3829 85.8904 25.1748 85.406C24.9667 84.9215 24.6642 84.4833 24.285 84.117L23.14 82.967L29.92 76.187C34.6465 79.9058 40.3043 82.254 46.275 82.975V92.55H44.656C44.1345 92.55 43.6182 92.6527 43.1364 92.8523C42.6546 93.0518 42.2168 93.3443 41.8481 93.7131C41.4794 94.0818 41.1868 94.5196 40.9873 95.0014C40.7877 95.4831 40.685 95.9995 40.685 96.521C40.685 97.0425 40.7877 97.5589 40.9873 98.0406C41.1868 98.5224 41.4794 98.9602 41.8481 99.3289C42.2168 99.6977 42.6546 99.9902 43.1364 100.19C43.6182 100.389 44.1345 100.492 44.656 100.492H55.836C56.8892 100.492 57.8992 100.074 58.6439 99.3289C59.3886 98.5842 59.807 97.5742 59.807 96.521C59.807 95.4678 59.3886 94.4578 58.6439 93.7131C57.8992 92.9684 56.8892 92.55 55.836 92.55H54.217V82.975C60.1877 82.2538 65.8454 79.9056 70.572 76.187L77.352 82.967L76.207 84.112C75.4836 84.8609 75.0833 85.864 75.0923 86.9053C75.1013 87.9465 75.5189 88.9425 76.2552 89.6788C76.9915 90.4151 77.9875 90.8327 79.0288 90.8417C80.07 90.8507 81.0731 90.4504 81.822 89.727L85.837 85.712L89.728 81.821C90.4514 81.0721 90.8518 80.069 90.8427 79.0277C90.8337 77.9865 90.4161 76.9905 89.6798 76.2542C88.9435 75.5179 87.9475 75.1003 86.9063 75.0913C85.865 75.0823 84.8619 75.4826 84.113 76.206L82.968 77.351L76.188 70.571C79.9068 65.8445 82.255 60.1867 82.976 54.216H92.55V55.835C92.55 56.8882 92.9684 57.8982 93.7131 58.6429C94.4578 59.3876 95.4678 59.806 96.521 59.806C97.5742 59.806 98.5842 59.3876 99.3289 58.6429C100.074 57.8982 100.492 56.8882 100.492 55.835V44.656C100.492 43.6028 100.074 42.5928 99.3289 41.8481C98.5842 41.1034 97.5742 40.685 96.521 40.685ZM50.246 75.274C45.2959 75.274 40.457 73.8061 36.3412 71.056C32.2254 68.3059 29.0175 64.3971 27.1232 59.8238C25.2288 55.2505 24.7332 50.2182 25.6989 45.3633C26.6646 40.5083 29.0483 36.0488 32.5485 32.5485C36.0488 29.0483 40.5083 26.6646 45.3633 25.6989C50.2183 24.7332 55.2505 25.2288 59.8238 27.1231C64.3971 29.0175 68.3059 32.2254 71.056 36.3412C73.8062 40.457 75.274 45.2959 75.274 50.246C75.2666 56.8816 72.6273 63.2432 67.9353 67.9353C63.2432 72.6273 56.8816 75.2666 50.246 75.274Z" fill="#E53935"/>
</g>
<defs>
<clipPath id="clip0">
<rect width="100.492" height="100.492" fill="white"/>
</clipPath>
</defs>
</svg>
