<svg id="virus_1_" data-name="virus(1)" xmlns="http://www.w3.org/2000/svg" width="100.492" height="100.492" viewBox="0 0 100.492 100.492">
  <g id="Group_2" data-name="Group 2">
    <g id="Group_1" data-name="Group 1">
      <circle id="Ellipse_1" data-name="Ellipse 1" cx="8.754" cy="8.754" r="8.754" transform="translate(34.342 35.281)" fill="#17a504"/>
      <circle id="Ellipse_2" data-name="Ellipse 2" cx="5.399" cy="5.399" r="5.399" transform="translate(51.997 51.997)" fill="#17a504"/>
      <path id="Path_1" data-name="Path 1" d="M96.521,40.685a3.971,3.971,0,0,0-3.971,3.971v1.619H82.975A32.815,32.815,0,0,0,76.187,29.92l6.78-6.78,1.145,1.145a3.971,3.971,0,0,0,5.615-5.615l-.565-.565-.065-.065-.077-.077.037.037-.089-.089-.025-.025-.069-.069-1.04-1.04-.117-.117-5.9-5.9a3.971,3.971,0,0,0-5.615,5.615l1.145,1.145-6.78,6.78a32.811,32.811,0,0,0-16.355-6.788V7.941h1.619a3.971,3.971,0,0,0,0-7.941H44.656a3.971,3.971,0,0,0,0,7.942h1.619v9.575A32.815,32.815,0,0,0,29.92,24.3l-6.78-6.78,1.145-1.145a3.971,3.971,0,1,0-5.615-5.615L17.6,11.834,10.764,18.67a3.971,3.971,0,1,0,5.615,5.615l1.145-1.145,6.78,6.78a32.811,32.811,0,0,0-6.788,16.355H7.941V44.656a3.971,3.971,0,1,0-7.941,0v11.18a3.971,3.971,0,1,0,7.942,0V54.217h9.575A32.815,32.815,0,0,0,24.3,70.572l-6.78,6.78-1.145-1.145a3.971,3.971,0,1,0-5.615,5.615l.565.565,1.445,1.445,5.9,5.9a3.971,3.971,0,1,0,5.615-5.615L23.14,82.967l6.78-6.78a32.811,32.811,0,0,0,16.355,6.788V92.55H44.656a3.971,3.971,0,1,0,0,7.942H55.836a3.971,3.971,0,1,0,0-7.942H54.217V82.975a32.815,32.815,0,0,0,16.355-6.788l6.78,6.78-1.145,1.145a3.971,3.971,0,0,0,5.615,5.615l4.015-4.015,3.891-3.891a3.971,3.971,0,0,0-5.615-5.615l-1.145,1.145-6.78-6.78a32.811,32.811,0,0,0,6.788-16.355H92.55v1.619a3.971,3.971,0,0,0,7.942,0V44.656A3.971,3.971,0,0,0,96.521,40.685ZM50.246,75.274A25.028,25.028,0,1,1,75.274,50.246,25.056,25.056,0,0,1,50.246,75.274Z" fill="#17a504"/>
    </g>
  </g>
</svg>
