<svg xmlns="http://www.w3.org/2000/svg" width="512" height="335.45" viewBox="0 0 512 335.45">
  <g id="Group_6" data-name="Group 6" transform="translate(-1321 -279)">
    <g id="european-union" transform="translate(1321 190.725)">
      <path id="Path_60" data-name="Path 60" d="M473.655,88.275H38.345A38.344,38.344,0,0,0,0,126.62V385.38a38.345,38.345,0,0,0,38.345,38.345h435.31A38.345,38.345,0,0,0,512,385.38V126.62A38.344,38.344,0,0,0,473.655,88.275Z" fill="#41479b"/>
    </g>
    <g id="language-24px" transform="translate(1444.67 314.412)">
      <path id="Path_73" data-name="Path 73" d="M0,0H263.918V263.918H0Z" fill="none"/>
      <path id="Path_74" data-name="Path 74" d="M111.856,2A109.966,109.966,0,1,0,221.932,111.966,109.912,109.912,0,0,0,111.856,2Zm76.206,65.98h-32.44a172.086,172.086,0,0,0-15.175-39.148A88.3,88.3,0,0,1,188.062,67.98Zm-76.1-43.547a154.906,154.906,0,0,1,21,43.547H90.962A154.906,154.906,0,0,1,111.966,24.433ZM26.852,133.959a90.632,90.632,0,0,1-2.859-21.993,90.632,90.632,0,0,1,2.859-21.993H64.021a181.612,181.612,0,0,0-1.54,21.993,181.612,181.612,0,0,0,1.54,21.993Zm9.017,21.993H68.31A172.086,172.086,0,0,0,83.485,195.1,87.828,87.828,0,0,1,35.87,155.952ZM68.31,67.98H35.87A87.828,87.828,0,0,1,83.485,28.832,172.087,172.087,0,0,0,68.309,67.98ZM111.966,199.5a154.907,154.907,0,0,1-21-43.547h42.007A154.907,154.907,0,0,1,111.966,199.5Zm25.732-65.54H86.234a161.79,161.79,0,0,1-1.759-21.993,160.384,160.384,0,0,1,1.759-21.993H137.7a160.384,160.384,0,0,1,1.759,21.993A161.79,161.79,0,0,1,137.7,133.959Zm2.749,61.141a172.086,172.086,0,0,0,15.175-39.148h32.44A88.3,88.3,0,0,1,140.447,195.1Zm19.464-61.141a181.612,181.612,0,0,0,1.54-21.993,181.612,181.612,0,0,0-1.54-21.993H197.08a90.633,90.633,0,0,1,2.859,21.993,90.633,90.633,0,0,1-2.859,21.993Z" transform="translate(19.993 19.993)" fill="#fff"/>
    </g>
  </g>
</svg>
