<svg id="check_box-24px" xmlns="http://www.w3.org/2000/svg" width="28.931" height="28.931" viewBox="0 0 28.931 28.931">
  <path id="Path_29" data-name="Path 29" d="M0,0H28.931V28.931H0Z" fill="none"/>
  <path id="Path_30" data-name="Path 30" d="M22.288,3H5.411A2.418,2.418,0,0,0,3,5.411V22.288A2.418,2.418,0,0,0,5.411,24.7H22.288A2.418,2.418,0,0,0,24.7,22.288V5.411A2.418,2.418,0,0,0,22.288,3ZM12.294,19.021a1.2,1.2,0,0,1-1.7,0L6.267,14.693a1.2,1.2,0,1,1,1.7-1.7l3.472,3.472,8.294-8.294a1.2,1.2,0,0,1,1.7,1.7l-9.137,9.15Z" transform="translate(0.616 0.616)" fill="#16a524"/>
</svg>
