<svg id="check_box_outline_blank-24px" xmlns="http://www.w3.org/2000/svg" width="28.931" height="28.931" viewBox="0 0 28.931 28.931">
  <path id="Path_25" data-name="Path 25" d="M0,0H28.931V28.931H0Z" fill="none"/>
  <path id="Path_26" data-name="Path 26" d="M21.082,22.288H6.616a1.209,1.209,0,0,1-1.205-1.205V6.616A1.209,1.209,0,0,1,6.616,5.411H21.082a1.209,1.209,0,0,1,1.205,1.205V21.082A1.209,1.209,0,0,1,21.082,22.288ZM22.288,3H5.411A2.418,2.418,0,0,0,3,5.411V22.288A2.418,2.418,0,0,0,5.411,24.7H22.288A2.418,2.418,0,0,0,24.7,22.288V5.411A2.418,2.418,0,0,0,22.288,3Z" transform="translate(0.616 0.616)"/>
</svg>
